<svg width="100" height="29" viewBox="0 0 100 29" fill="none" xmlns="http://www.w3.org/2000/svg">
<path d="M7.68082 22.8194C6.12978 22.8194 4.76997 22.575 3.60138 22.0863C2.45404 21.5976 1.56166 20.9071 0.924248 20.0147C0.308083 19.1011 0 18.0494 0 16.8596V15.9672C0 15.691 0.138106 15.5529 0.414318 15.5529H1.78475C2.06097 15.5529 2.19907 15.691 2.19907 15.9672V16.7321C2.19907 17.9432 2.709 18.9311 3.72886 19.696C4.74872 20.4609 6.11916 20.8434 7.84017 20.8434C9.47619 20.8434 10.7191 20.5034 11.569 19.8235C12.4189 19.1224 12.8439 18.1981 12.8439 17.0508C12.8439 16.3071 12.642 15.6697 12.2383 15.1385C11.8559 14.6074 11.2609 14.1081 10.4536 13.6406C9.64617 13.1732 8.48821 12.6314 6.97966 12.0152C5.38613 11.3778 4.14318 10.8254 3.2508 10.3579C2.37967 9.86927 1.6679 9.2531 1.11547 8.50945C0.584294 7.74456 0.318706 6.78844 0.318706 5.6411C0.318706 3.85634 0.934871 2.47528 2.1672 1.49792C3.42078 0.499306 5.14179 0 7.33024 0C9.66742 0 11.5159 0.552424 12.8757 1.65727C14.2355 2.76212 14.9154 4.22817 14.9154 6.05542V6.66096C14.9154 6.93717 14.7773 7.07527 14.5011 7.07527H13.0988C12.8226 7.07527 12.6845 6.93717 12.6845 6.66096V6.1829C12.6845 4.95057 12.2064 3.94133 11.2503 3.15519C10.2942 2.36905 8.94502 1.97598 7.20276 1.97598C5.69421 1.97598 4.53625 2.28406 3.72886 2.90022C2.94272 3.51639 2.54965 4.40877 2.54965 5.57736C2.54965 6.34225 2.74087 6.97966 3.12332 7.48959C3.52701 7.97827 4.09006 8.41384 4.81246 8.79629C5.55611 9.15749 6.6822 9.63555 8.19075 10.2305C9.74178 10.8679 10.9954 11.4628 11.9515 12.0152C12.9076 12.5676 13.6725 13.2476 14.2462 14.0549C14.8198 14.8411 15.1067 15.8078 15.1067 16.9552C15.1067 18.7187 14.448 20.1422 13.1307 21.2258C11.8346 22.2882 10.018 22.8194 7.68082 22.8194Z" fill="white"/>
<path d="M31.9324 10.4536C32.2298 11.4097 32.3785 12.7589 32.3785 14.5011C32.3785 16.2646 32.2511 17.582 31.9961 18.4531C31.6136 19.8129 30.9125 20.8859 29.8926 21.672C28.8728 22.4369 27.6086 22.8194 26.1 22.8194C25.2714 22.8194 24.5065 22.66 23.8054 22.3413C23.1042 22.0013 22.5199 21.5233 22.0525 20.9071C22.01 20.8434 21.9675 20.8221 21.925 20.8434C21.8825 20.8646 21.8612 20.9071 21.8612 20.9709V28.333C21.8612 28.6092 21.7231 28.7473 21.4469 28.7473H20.0127C19.7365 28.7473 19.5984 28.6092 19.5984 28.333V6.85218C19.5984 6.57597 19.7365 6.43786 20.0127 6.43786H21.4469C21.7231 6.43786 21.8612 6.57597 21.8612 6.85218V8.06326C21.8612 8.12701 21.8825 8.1695 21.925 8.19075C21.9675 8.19075 22.01 8.1695 22.0525 8.12701C22.5199 7.51084 23.0936 7.03278 23.7735 6.69283C24.4746 6.35287 25.2501 6.1829 26.1 6.1829C27.5873 6.1829 28.8303 6.56535 29.8289 7.33024C30.8488 8.09513 31.5499 9.13624 31.9324 10.4536ZM29.3827 18.5168C29.6377 18.0494 29.8183 17.5288 29.9245 16.9552C30.052 16.3602 30.1157 15.5422 30.1157 14.5011C30.1157 13.5025 30.0732 12.727 29.9882 12.1746C29.9033 11.6009 29.7545 11.091 29.5421 10.6448C29.2871 9.87989 28.8303 9.27435 28.1716 8.82816C27.5342 8.38197 26.7693 8.15888 25.8769 8.15888C25.0271 8.15888 24.3153 8.38197 23.7416 8.82816C23.1679 9.27435 22.743 9.86926 22.4668 10.6129C22.2756 11.0379 22.1375 11.5372 22.0525 12.1108C21.9675 12.6845 21.925 13.4813 21.925 14.5011C21.925 15.521 21.9675 16.3284 22.0525 16.9233C22.1375 17.497 22.2862 18.0069 22.4987 18.4531C22.7536 19.1755 23.1679 19.7598 23.7416 20.206C24.3365 20.6309 25.0377 20.8434 25.8451 20.8434C26.695 20.8434 27.428 20.6309 28.0441 20.206C28.6603 19.781 29.1065 19.218 29.3827 18.5168Z" fill="white"/>
<path d="M43.1461 20.8752C44.1022 20.854 44.9202 20.6415 45.6001 20.2378C46.3013 19.8129 46.8431 19.2286 47.2255 18.485C47.268 18.3787 47.3424 18.3044 47.4486 18.2619C47.5548 18.2194 47.6611 18.23 47.7673 18.2937L48.6916 18.8037C48.9465 18.9524 49.0103 19.133 48.8828 19.3455C48.3729 20.4078 47.608 21.2577 46.5881 21.8951C45.5682 22.5113 44.3572 22.8194 42.9549 22.8194C41.4676 22.8194 40.214 22.4688 39.1941 21.7676C38.1743 21.0665 37.4412 20.0891 36.995 18.8355C36.5914 17.7732 36.3895 16.3071 36.3895 14.4374C36.3895 13.5238 36.4001 12.8014 36.4214 12.2702C36.4639 11.7178 36.5489 11.2078 36.6763 10.7404C37.0375 9.35933 37.7599 8.25449 38.8435 7.42585C39.9484 6.59722 41.2763 6.1829 42.8274 6.1829C44.6759 6.1829 46.1207 6.66096 47.1618 7.61708C48.2241 8.57319 48.904 9.92238 49.2015 11.6646C49.329 12.3446 49.3927 13.4069 49.3927 14.8517C49.3927 15.1279 49.2546 15.266 48.9784 15.266H38.7798C38.6736 15.266 38.6205 15.3191 38.6205 15.4254C38.6205 16.4877 38.6842 17.2632 38.8117 17.7519C39.0454 18.708 39.5341 19.4729 40.2777 20.0466C41.0426 20.599 41.9987 20.8752 43.1461 20.8752ZM42.8274 8.15888C41.765 8.15888 40.8939 8.43509 40.214 8.98751C39.5341 9.51869 39.0879 10.2411 38.8754 11.1547C38.7479 11.5797 38.6629 12.3021 38.6205 13.3219C38.6205 13.4281 38.6736 13.4813 38.7798 13.4813H46.9705C47.0768 13.4813 47.1299 13.4281 47.1299 13.3219C47.0874 12.387 47.0237 11.7071 46.9387 11.2822C46.705 10.3261 46.2269 9.57181 45.5045 9.01938C44.8033 8.44571 43.911 8.15888 42.8274 8.15888Z" fill="white"/>
<path d="M59.4695 6.1829C61.3818 6.1829 62.8585 6.67158 63.8996 7.64895C64.9619 8.62631 65.4931 9.92238 65.4931 11.5372V22.1501C65.4931 22.4263 65.355 22.5644 65.0788 22.5644H63.6446C63.3684 22.5644 63.2303 22.4263 63.2303 22.1501V21.0027C63.2303 20.939 63.209 20.8965 63.1665 20.8752C63.124 20.854 63.0815 20.8752 63.0391 20.939C62.4654 21.5552 61.743 22.0226 60.8719 22.3413C60.022 22.66 59.0871 22.8194 58.0672 22.8194C56.5799 22.8194 55.3264 22.4369 54.3065 21.672C53.3079 20.9071 52.8086 19.7385 52.8086 18.1662C52.8086 16.5727 53.3823 15.3191 54.5296 14.4055C55.6982 13.4706 57.313 13.0032 59.3739 13.0032H63.0709C63.1772 13.0032 63.2303 12.9501 63.2303 12.8439V11.6646C63.2303 10.581 62.9222 9.73116 62.306 9.11499C61.7111 8.47758 60.7762 8.15888 59.5014 8.15888C58.5028 8.15888 57.6848 8.3501 57.0474 8.73255C56.41 9.11499 56.0063 9.64617 55.8363 10.3261C55.7726 10.581 55.6132 10.6873 55.3582 10.6448L53.7966 10.4536C53.5204 10.4111 53.3929 10.2942 53.4141 10.103C53.6266 8.93439 54.2746 7.9889 55.3582 7.2665C56.4631 6.5441 57.8335 6.1829 59.4695 6.1829ZM58.5772 20.8752C59.8308 20.8752 60.9143 20.5672 61.828 19.951C62.7628 19.3136 63.2303 18.4637 63.2303 17.4014V14.9473C63.2303 14.8411 63.1772 14.788 63.0709 14.788H59.7245C58.3222 14.788 57.1961 15.0748 56.3462 15.6485C55.4964 16.2221 55.0714 17.0189 55.0714 18.0388C55.0714 18.9736 55.4007 19.6854 56.0594 20.1741C56.7181 20.6415 57.5573 20.8752 58.5772 20.8752Z" fill="white"/>
<path d="M70.5842 22.5644C70.308 22.5644 70.1699 22.4263 70.1699 22.1501V0.669282C70.1699 0.39307 70.308 0.254964 70.5842 0.254964H72.0183C72.2946 0.254964 72.4327 0.39307 72.4327 0.669282V13.545C72.4327 13.6088 72.4539 13.6619 72.4964 13.7044C72.5389 13.7256 72.5814 13.7044 72.6239 13.6406L79.2849 6.66096C79.4123 6.51223 79.5823 6.43786 79.7948 6.43786H81.4839C81.7176 6.43786 81.8345 6.52285 81.8345 6.69283C81.8345 6.75657 81.8026 6.84156 81.7389 6.94779L77.7869 11.3141C77.7232 11.3778 77.7126 11.4522 77.7551 11.5372L82.5357 22.0863C82.5781 22.1713 82.5994 22.2351 82.5994 22.2776C82.5994 22.4688 82.4719 22.5644 82.2169 22.5644H80.719C80.5066 22.5644 80.3472 22.4582 80.241 22.2457L76.1934 13.0351C76.1722 12.9926 76.1403 12.9713 76.0978 12.9713C76.0553 12.9501 76.0128 12.9607 75.9703 13.0032L72.4964 16.6365C72.4539 16.7214 72.4327 16.7958 72.4327 16.8596V22.1501C72.4327 22.4263 72.2946 22.5644 72.0183 22.5644H70.5842Z" fill="white"/>
<path d="M86.8374 22.5644C86.5612 22.5644 86.4231 22.4263 86.4231 22.1501V21.1621C86.4231 20.8859 86.5612 20.7478 86.8374 20.7478H99.5857C99.8619 20.7478 100 20.8859 100 21.1621V22.1501C100 22.4263 99.8619 22.5644 99.5857 22.5644H86.8374Z" fill="#32EBBE"/>
</svg>
